<svg xmlns="http://www.w3.org/2000/svg" xmlns:xlink="http://www.w3.org/1999/xlink" version="1.1" x="0px" y="0px" viewBox="0 0 269.303 323.5125" style="enable-background:new 0 0 269.303 258.81;" xml:space="preserve"><g><path d="M123.271,144.551c0,0.652-0.004,1.324-0.012,2.012c-0.012,0.792-0.147,1.59-0.391,2.376c0.984-0.173,1.99-0.28,3.023-0.28   c9.619,0,17.447,7.818,17.465,17.433h36.754c1.477,0,2.674-1.197,2.674-2.673V101.02c0-1.477-1.197-2.674-2.674-2.674h-64.23   c0.283,0.792,0.563,1.592,0.834,2.406C121.064,113.932,123.267,128.66,123.271,144.551z M150.023,145.764v-4.256H175v4.256H150.023   z M175,129.27v4.463h-24.977v-4.463H175z M150.023,127.613v-4.463H175v4.463H150.023z M175,135.389v4.463h-24.977v-4.463H175z    M175,117.238v4.255h-24.977v-4.255H175z"/><path d="M224.617,148.658c9.621,0,17.447,7.818,17.465,17.433h8.98c2.205,0,4.01-1.805,4.01-4.011v-1.379h1.301   c2.178,0,3.943-1.766,3.943-3.943v-7.362c0-2.177-1.766-3.942-3.943-3.942h-1.301v-18.932c0-2.205-0.842-5.604-1.871-7.555   l-10.848-20.551c-1.029-1.951-3.678-3.546-5.881-3.546h-2.578v-5.683h-14.986v5.683h-26.73c-2.207,0-4.01,1.804-4.01,4.009v63.201   c0,2.206,1.803,4.011,4.01,4.011h14.975C207.17,156.477,214.998,148.658,224.617,148.658z M219.313,123.552h-9.871v-2.139h9.871   V123.552z M238.807,100.287l9.358,17.727h-22.397V98.879h10.705C237.186,98.879,238.473,99.656,238.807,100.287z M222.828,98.879   v19.135h-30.65V98.879H222.828z"/><path d="M238.992,166.124c0-7.938-6.436-14.374-14.375-14.374c-7.941,0-14.375,6.436-14.375,14.374   c0,7.939,6.434,14.376,14.375,14.376C232.557,180.5,238.992,174.063,238.992,166.124z M216.424,166.124   c0-4.518,3.678-8.19,8.193-8.19c4.518,0,8.191,3.673,8.191,8.19c0,4.518-3.674,8.194-8.191,8.194   C220.102,174.318,216.424,170.642,216.424,166.124z"/><path d="M120.037,153.114c-0.066,1.296-0.13,2.592-0.225,3.898c-0.379,5.188-3.604,9.561-8.059,11.656   c1.202,6.724,7.066,11.833,14.139,11.833c7.938,0,14.375-6.437,14.375-14.376c0-7.938-6.438-14.374-14.375-14.374   c-1.969,0-3.844,0.397-5.553,1.113C120.246,152.95,120.136,153.03,120.037,153.114z M134.086,166.124   c0,4.518-3.678,8.194-8.193,8.194c-4.517,0-8.193-3.677-8.193-8.194c0-4.518,3.676-8.19,8.193-8.19   C130.408,157.934,134.086,161.606,134.086,166.124z"/><path d="M235.575,84.309h33.296V58.674H235.35v13.764L109.554,84.287c1.944,3.452,3.72,7.255,5.327,11.391L235.575,84.309z"/><path d="M102.148,182.281c0.002,0.291,0.01,0.591,0.01,0.879c-0.002,0.738-0.008,1.459-0.014,2.158l-0.006,0.514h167.164v-3.551   h-38.068H218h-85.49h-13.235H102.148z"/><path d="M31.59,191.226v2.97v52.251c0,6.83,5.537,12.363,12.363,12.363c6.828,0,12.365-5.533,12.365-12.363v-47.544v-3.012   C49.777,195.368,38.973,192.989,31.59,191.226z"/><path d="M60.953,195.892v3.011v47.544c0,6.83,5.537,12.363,12.363,12.363c6.828,0,12.365-5.533,12.365-12.363v-52.251v-2.97   C78.298,192.99,67.494,195.369,60.953,195.892z"/><path d="M19.4,155.422c-0.111-1.54-0.197-3.056-0.262-4.551c-2.729,0.623-5.355,0.87-7.781,0.87   c-3.137-0.002-5.939-0.401-8.227-0.9c0.072,1.885,0.17,3.793,0.311,5.737c0.307,4.209,3.814,7.422,7.969,7.422   c0.195,0,0.392-0.007,0.59-0.021c1.537-0.111,2.935-0.657,4.1-1.499C18.271,160.909,19.608,158.291,19.4,155.422z"/><path d="M11.357,148.741c3.23,0,6.818-0.464,10.519-1.776c0.082-0.251,0.138-0.508,0.134-0.783C22,145.648,22,145.105,22,144.553   c-0.002-10.796,1.256-20.231,3.175-28.11c-4.794-1.976-10.646-5.496-15.61-8.657c-1.481-0.947-2.865-1.855-4.093-2.672   C2.143,116.082,0.004,129.324,0,144.553c0,0.627,0.004,1.271,0.012,1.936c0.002,0.135,0.027,0.263,0.051,0.392   c0.504,0.172,1.088,0.358,1.763,0.546C4.183,148.082,7.516,148.743,11.357,148.741z"/><path d="M27.421,108.716c1.034-3.054,2.181-5.783,3.345-8.137c-0.834,4.641-1.818,10.324-2.834,16.632   c0.107,0.03,0.259,0.072,0.467,0.128c0.442,0.121,1.104,0.297,1.951,0.508c1.692,0.424,4.127,0.991,7.046,1.559   c5.835,1.137,13.626,2.263,21.24,2.259c13.343,0.014,27.144-3.472,30.239-4.326c0.209-0.057,0.359-0.099,0.467-0.128   c-1.016-6.305-2-11.986-2.834-16.626c1.165,2.353,2.311,5.082,3.345,8.136c5.638-2.485,14.569-8.246,19.226-11.413   c-3.496-8.859-7.74-15.842-12.674-20.976c-5.271-5.42-11.572-8.455-17.322-10.121c-0.739-0.213-1.471-0.405-2.195-0.578v-5.298   c-4.489,5.015-11.007,8.178-18.252,8.178c-7.244,0-13.76-3.162-18.248-8.175v5.294c-0.725,0.174-1.457,0.365-2.197,0.579   c-5.75,1.666-12.049,4.701-17.322,10.121c-4.933,5.134-9.176,12.115-12.672,20.974c1.537,1.041,3.511,2.354,5.679,3.739   C18.298,103.886,23.648,107.049,27.421,108.716z M50.303,81.666h16.668v4.667H50.303V81.666z M50.303,110.332v-4.666h16.668v4.666   H50.303z"/><path d="M105.27,163.98c0.195,0.014,0.391,0.02,0.586,0.02c4.156,0.001,7.666-3.212,7.973-7.422   c0.141-1.943,0.238-3.852,0.312-5.739c-2.286,0.501-5.091,0.899-8.227,0.902c-2.425,0-5.053-0.248-7.782-0.871   c-0.063,1.494-0.149,3.01-0.26,4.55C97.549,159.827,100.863,163.658,105.27,163.98z"/><path d="M105.913,148.742c4.937,0.001,9.028-1.089,11.296-1.861c0.023-0.129,0.049-0.257,0.051-0.393   c0.01-0.664,0.014-1.309,0.014-1.936c-0.004-15.229-2.144-28.47-5.474-39.44c-1.228,0.818-2.611,1.726-4.093,2.673   c-4.965,3.161-10.815,6.682-15.609,8.657c1.92,7.879,3.176,17.314,3.174,28.11c0,0.553-0.002,1.096-0.01,1.629   c-0.004,0.274,0.052,0.532,0.134,0.782C99.093,148.275,102.681,148.742,105.913,148.742z"/><path d="M58.637,170.665c-15.086-0.009-29.928-2.548-36.855-3.918c-0.479,6.62-0.733,12.91-0.653,18.503   c0,0,27.508,7.75,37.508,7.75s37.508-7.75,37.508-7.75c0.08-5.593-0.174-11.883-0.653-18.503   C88.564,168.117,73.721,170.656,58.637,170.665z"/><path d="M22.455,158.724c0.135,0.027,0.261,0.053,0.402,0.081c2.141,0.429,5.211,1.003,8.895,1.575   c7.366,1.146,17.193,2.288,26.885,2.286c14.54,0.006,29.365-2.573,35.777-3.86c0.143-0.028,0.27-0.055,0.404-0.081   c-1.061-11.229-2.626-22.957-4.232-33.563c-4.027,1.077-17.789,4.487-31.95,4.503c-14.159-0.016-27.919-3.425-31.948-4.502   C25.08,135.768,23.516,147.496,22.455,158.724z M50.303,143.166h16.668v4.666H50.303V143.166z"/><path d="M58.635,32.695c12.197,0,24.5,3.498,24.5,11.318c0,0.33-0.012,0.656-0.025,0.982c9.541-1.768,15.693-4.542,15.693-7.663   c0-3.14-6.225-5.929-15.863-7.695c-1.453-3.395-3.5-8.437-4.787-12.728c-0.984-3.279-5.098-5.363-9.293-6.665   c0.496,1.499,0.777,3.128,0.777,4.839c0,7.271-4.924,13.166-11,13.166c-6.076,0-11-5.895-11-13.166c0-1.703,0.279-3.325,0.77-4.819   c-4.173,1.303-8.251,3.382-9.229,6.645c-1.285,4.286-3.329,9.321-4.782,12.716c-9.675,1.765-15.927,4.56-15.927,7.707   c0,3.122,6.153,5.896,15.693,7.663c-0.014-0.327-0.025-0.653-0.025-0.982C34.137,36.193,46.439,32.695,58.635,32.695z"/><path d="M81.137,44.014c0-12.426-45-12.426-45,0c0,12.428,10.072,22.5,22.5,22.5C71.063,66.514,81.137,56.441,81.137,44.014z"/><path d="M49.469,13.167c0,7.271,4.105,13.167,9.168,13.167c5.062,0,9.166-5.896,9.166-13.167c0-2.96-0.688-5.682-1.836-7.88   C64.295,2.082,61.639,0,58.637,0c-3.003,0-5.661,2.084-7.334,5.289C50.156,7.488,49.469,10.208,49.469,13.167z"/></g><text x="0" y="273.81" fill="#000000" font-size="5px" font-weight="bold" font-family="'Helvetica Neue', Helvetica, Arial-Unicode, Arial, Sans-serif">Created by Gan Khoon Lay</text><text x="0" y="278.81" fill="#000000" font-size="5px" font-weight="bold" font-family="'Helvetica Neue', Helvetica, Arial-Unicode, Arial, Sans-serif">from the Noun Project</text></svg>